<?xml version="1.0" standalone="no"?>
<!DOCTYPE svg PUBLIC "-//W3C//DTD SVG 20010904//EN"
 "http://www.w3.org/TR/2001/REC-SVG-20010904/DTD/svg10.dtd">
<svg version="1.0" xmlns="http://www.w3.org/2000/svg"
 width="700.000000pt" height="700.000000pt" viewBox="0 0 700.000000 700.000000"
 preserveAspectRatio="xMidYMid meet">
<metadata>
Created by potrace 1.14, written by Peter Selinger 2001-2017
</metadata>
<g transform="translate(0.000000,700.000000) scale(0.100000,-0.100000)"
fill="#000000" stroke="none">
<path d="M2903 5853 c-66 -42 -105 -133 -127 -298 -3 -16 -5 -68 -5 -114 l-1
-84 -22 29 c-109 146 -234 214 -405 219 -73 2 -105 -2 -157 -19 -132 -45 -240
-143 -306 -281 -121 -253 -67 -456 110 -410 25 7 83 33 130 58 213 115 325
115 439 -2 92 -95 180 -277 251 -523 l38 -128 -117 0 c-64 0 -132 -2 -151 -4
-103 -14 -131 -19 -200 -37 -194 -51 -419 -163 -569 -282 -61 -49 -212 -209
-263 -278 -129 -177 -224 -376 -282 -599 -39 -147 -40 -157 -10 -245 174 -521
617 -944 1188 -1137 l128 -43 30 -60 c48 -96 117 -175 224 -256 69 -52 96 -59
143 -34 32 16 47 49 56 120 18 148 17 146 78 140 976 -101 1768 81 2162 497
159 167 245 351 300 645 14 76 18 109 31 243 11 118 12 134 13 226 l1 91 114
57 c176 89 296 189 349 291 29 57 34 169 10 214 -23 45 -60 71 -105 75 -38 4
-171 -35 -198 -58 -8 -7 -22 -15 -30 -19 -8 -3 -51 -30 -95 -60 -44 -31 -80
-55 -81 -54 0 1 -22 43 -48 92 -154 290 -294 371 -370 213 -67 -141 -47 -344
58 -570 l33 -72 -34 -75 c-83 -180 -106 -222 -148 -269 -135 -150 -329 -139
-565 33 -96 71 -221 202 -355 375 -304 390 -622 639 -978 764 l-92 32 1 45 c4
157 42 366 85 459 64 139 222 231 454 264 106 16 166 40 242 97 159 120 135
282 -56 379 -88 44 -252 30 -375 -32 -58 -29 -195 -119 -236 -156 -19 -17 -35
-30 -37 -29 -1 1 -4 65 -7 142 -5 156 -12 216 -31 291 -38 149 -116 200 -212
137z"/>
</g>
</svg>
