<?xml version="1.0" encoding="UTF-8" standalone="no"?>
<svg
   xmlns:dc="http://purl.org/dc/elements/1.1/"
   xmlns:cc="http://creativecommons.org/ns#"
   xmlns:rdf="http://www.w3.org/1999/02/22-rdf-syntax-ns#"
   xmlns:svg="http://www.w3.org/2000/svg"
   xmlns="http://www.w3.org/2000/svg"
   xmlns:sodipodi="http://sodipodi.sourceforge.net/DTD/sodipodi-0.dtd"
   xmlns:inkscape="http://www.inkscape.org/namespaces/inkscape"
   version="1.1"
   id="svg10"
   xml:space="preserve"
   width="3711.687"
   height="3482.4106"
   viewBox="0 0 3711.687 3482.4106"
   sodipodi:docname="whale.svg"
   inkscape:version="1.0.2 (e86c8708, 2021-01-15)"><metadata
     id="metadata16"><rdf:RDF><cc:Work
         rdf:about=""><dc:format>image/svg+xml</dc:format><dc:type
           rdf:resource="http://purl.org/dc/dcmitype/StillImage" /><dc:title /></cc:Work></rdf:RDF></metadata><defs
     id="defs14" /><sodipodi:namedview
     pagecolor="#ffffff"
     bordercolor="#666666"
     borderopacity="1"
     objecttolerance="10"
     gridtolerance="10"
     guidetolerance="10"
     inkscape:pageopacity="0"
     inkscape:pageshadow="2"
     inkscape:window-width="1792"
     inkscape:window-height="1075"
     id="namedview12"
     showgrid="false"
     inkscape:zoom="0.1378125"
     inkscape:cx="1728.4893"
     inkscape:cy="1814.0094"
     inkscape:window-x="0"
     inkscape:window-y="23"
     inkscape:window-maximized="0"
     inkscape:current-layer="g18"
     inkscape:document-rotation="0" /><g
     id="g18"
     inkscape:groupmode="layer"
     inkscape:label="ink_ext_XXXXXX"
     transform="matrix(1.3333333,0,0,-1.3333333,-938.17735,4480.676)"><g
       id="g26"
       transform="scale(0.205735)"><path
         d="m 10512.6,14187 c -138.3,-74.1 -299.3,-126.8 -464.3,-148 -485.9,-62.4 -920.05,-202 -1225.88,-565 -388.85,-461.3 -383.6,-1954.3 -383.6,-1954.3 h -357.74 c 0,0 -440.76,2593.4 -1469.85,2564.8 -656.77,-18.2 -987.29,-543.2 -1329.48,-403.2 -86.13,35.4 -136.68,136.1 -151.65,273.4 -57.16,523.5 404.4,1577.1 1384.11,1536.9 571.8,-23.5 906.41,-353.3 1091.31,-643.2 50.16,-78.5 172.45,-41 170.9,52.3 -9.73,526.5 49.57,1292.6 470.5,1346.6 409.27,52.7 422.68,-1079.2 408.88,-1576 -2.14,-81.1 93.71,-125.8 154.37,-71.7 355.41,316.9 1215.93,969 1857.73,517.7 455.3,-320.2 247.1,-715.3 -155.3,-930.3"
         style="fill:#85cef7;fill-opacity:1;fill-rule:nonzero;stroke:none"
         id="path28" /></g><g
       id="g30"
       transform="scale(0.18238)"><path
         d="m 9433.67,13376.9 c -103.08,23.1 -206.71,42.4 -310.23,57.7 -190.32,823.8 -701.84,2549.8 -1646.51,2549.8 -7.19,0 -14.42,-0.1 -21.66,-0.3 -398.95,-11.1 -696.95,-177.7 -936.4,-311.6 -184.18,-103.1 -311.16,-170.1 -423.73,-170.1 -34.49,0 -67.66,6.3 -100.67,19.8 -28.35,11.6 -53.79,39.3 -73.58,81.4 5.1,-0.8 10.31,-1.4 15.73,-1.6 1.81,-0.2 3.68,-0.2 5.49,-0.2 108.29,0 251.94,174.5 480.04,349.1 228.04,174.5 540.63,349.1 986.57,349.1 92.44,0 190.59,-7.5 294.99,-24.1 1119.64,-177.6 1123.15,-1679.8 1495.12,-1719.9 8.61,-0.9 17,-1.4 25.05,-1.4 340.23,0 205.07,815.3 997.62,1205 462.6,227.5 846.3,284 1149.9,284 114.5,0 217.6,-8 309.2,-18 -111.3,-44.9 -232.8,-77.5 -357.7,-93.6 -681.7,-87.6 -1127,-294.5 -1444.17,-670.7 -326.35,-387.3 -418.91,-1345.1 -445.06,-1884.4"
         style="fill:#5d90cf;fill-opacity:1;fill-rule:nonzero;stroke:none"
         id="path32" /></g><g
       id="g34"
       transform="scale(0.206273)"><path
         d="m 8059.84,11404.8 c -40.58,0 -76.5,29.2 -83.53,70.6 -1.07,6.4 -111.75,648.1 -344.79,1276.5 -207.54,559.8 -554.6,1224.6 -1035.13,1211.1 -311.04,-8.7 -544.18,-139.1 -749.83,-254.1 -217.04,-121.3 -404.46,-226.2 -610.74,-141.8 -186.31,76.3 -255.44,360.6 -176.13,724.3 135.7,622.4 644.1,1277.4 1441,1244.4 613.12,-25.2 967.36,-383.9 1156.53,-680.5 1.6,-2.5 2.81,-4.3 8.14,-2.7 5.97,1.8 5.92,4.7 5.87,7.6 -11.4,618.5 73.69,1368.5 543.35,1428.9 84.21,10.9 163.57,-14.7 229.07,-73.9 256.5,-232 290.78,-989.7 274.44,-1584.5 -0.09,-2 -0.14,-5 4.46,-7.2 4.51,-2.1 6.64,-0.2 8.15,1.2 358.06,319.4 1265.55,1009.6 1958.1,522.5 314.1,-220.9 310,-460.2 279.5,-583.2 -76.6,-309.4 -478.7,-587.1 -935.4,-645.8 -557.32,-71.6 -917.76,-236.3 -1168.69,-534 -363.26,-431.1 -362.72,-1879.8 -362.67,-1894.3 0.19,-46.9 -37.72,-85 -84.55,-85.1 h -0.29 c -46.74,0 -84.65,37.7 -84.84,84.5 -0.2,62.1 -0.63,1525.7 402.57,2004.2 280.4,332.7 674.15,515.6 1276.87,593.1 384.6,49.3 732.6,277 792.3,518.2 35.6,143.7 -35.9,279.5 -212.5,403.6 -593.01,417.2 -1419.63,-217.9 -1747.45,-510.3 -53.66,-47.9 -127.45,-58.7 -192.61,-28.5 -65.25,30.4 -104.57,93.9 -102.58,165.8 21.14,767.5 -60.55,1311 -218.59,1453.9 -29.14,26.4 -58.13,36.1 -93.61,31.5 -265.33,-34.1 -409.46,-492.4 -395.4,-1257.4 1.5,-80.4 -49.35,-150 -126.49,-173.3 -76.74,-23.1 -157.21,6.6 -200.17,74 -167.49,262.5 -480.48,580 -1020.44,602.2 -698.59,29.1 -1147.21,-555.8 -1268.27,-1111 -65.1,-298.5 -10.13,-496.5 74.61,-531.1 124.45,-50.9 250.88,13.9 463.66,132.8 211.71,118.4 475.19,265.8 827.93,275.6 6.4,0.2 12.8,0.2 19.15,0.2 1073.57,0 1514.4,-2521 1532.72,-2629 7.9,-46.2 -23.22,-90 -69.37,-97.8 -4.8,-0.8 -9.6,-1.2 -14.35,-1.2"
         style="fill:#000072;fill-opacity:1;fill-rule:nonzero;stroke:none"
         id="path36" /></g><g
       id="g38"
       transform="scale(0.109204)"><path
         d="m 14300,12375.8 c 0,0 -2377.7,-3222.95 801.6,-5315.46 220.6,-145.23 516.7,-1.55 542.8,261.26 34.9,351.17 104.9,821.03 245.3,1271.1 228.4,732.12 356.1,1204.53 410.3,1650.4 l -2000,2132.7"
         style="fill:#33aef2;fill-opacity:1;fill-rule:nonzero;stroke:none"
         id="path40" /></g><g
       id="g42"
       transform="scale(0.10499)"><path
         d="m 15906.6,7435.88 c -40,0 -79.5,11.81 -114.9,35.15 -670.8,441.47 -1140.6,962.76 -1403.7,1555.68 486.7,-119.16 990.9,-214.31 1511.2,-285.08 134,-18.29 267.6,-35.62 400.8,-51.91 -99.2,-396.61 -151.7,-782.55 -179.3,-1059.15 -7.4,-75.63 -53,-140.49 -121.9,-173.35 -30,-14.29 -61.2,-21.34 -92.2,-21.34"
         style="fill:#2479cb;fill-opacity:1;fill-rule:nonzero;stroke:none"
         id="path44" /></g><g
       id="g46"
       transform="scale(0.110244)"><path
         d="m 15148.5,6791.29 c -94,0 -187.3,27.3 -269.1,81.18 -935.9,616 -1492.9,1390.82 -1655.7,2303.16 -291.4,1633.57 778.9,3107.67 824.7,3169.57 47.5,64.5 138.4,78.3 202.9,30.7 64.5,-47.6 78.2,-138.4 30.6,-203 -13.7,-18.6 -1042,-1441.3 -772.1,-2948.2 148.7,-829.97 663.2,-1539.76 1529.2,-2109.77 59.9,-39.45 131.9,-44.35 197.3,-13.15 65.5,31.3 109,93.07 116.1,165.09 32.6,328.27 102.2,818.18 248.9,1288.05 213,682.66 346.8,1164.78 400.9,1609.08 9.6,79.6 81.3,136.1 161.6,126.6 79.5,-9.7 136.2,-82.1 126.5,-161.6 -56.7,-466.27 -193.9,-961.98 -412,-1660.53 -139.2,-446.55 -205.7,-915.51 -237,-1230.27 -17.3,-174.06 -122,-323 -280.1,-398.38 -68.1,-32.48 -140.6,-48.53 -212.7,-48.53"
         style="fill:#000072;fill-opacity:1;fill-rule:nonzero;stroke:none"
         id="path48" /></g><g
       id="g50"
       transform="scale(0.213347)"><path
         d="m 14944.9,8868.5 c 0,0 1355.1,494.45 1318.4,1220.9 -45,892.3 -1364.7,-240.01 -1364.7,-240.01 0,0 -707.4,1660.81 -1036.3,901.51 -283.4,-654 287.5,-1651.18 287.5,-1651.18 l 795.1,-231.22"
         style="fill:#33aef2;fill-opacity:1;fill-rule:nonzero;stroke:none"
         id="path52" /></g><g
       id="g54"
       transform="scale(0.193385)"><path
         d="m 15612.9,10232.1 c -10,20.5 -20.5,42.9 -31.6,67 -11.9,48.5 -26.7,109 -42.7,177 160.2,210.2 409.5,473.7 712.3,579 17,-35 33.4,-69.8 49.1,-104.1 -17.1,-4.5 -35.4,-10.6 -54.7,-18.5 -152.4,-62.1 -369.9,-239.9 -632.4,-700.4"
         style="fill:#2171c5;fill-opacity:1;fill-rule:nonzero;stroke:none"
         id="path56" /></g><g
       id="g58"
       transform="scale(0.18979)"><path
         d="m 15810.8,10645.2 c -155.4,378.3 -331,970.2 -143.2,1403.6 33.2,76.6 87.5,167.8 158.1,167.8 h 0.2 c 127.1,-0.3 305.1,-210.3 474.1,-480.6 -126.1,152.8 -256.1,287.4 -356.2,337.8 -22,11.1 -43.6,16.4 -64.5,16.4 -123.6,0 -223,-184.6 -223,-451.2 0,-185.9 102.5,-652.1 176.6,-964.5 -7.6,-9.9 -14.9,-19.6 -22.1,-29.3"
         style="fill:#85cef7;fill-opacity:1;fill-rule:nonzero;stroke:none"
         id="path60" /></g><g
       id="g62"
       transform="scale(0.184858)"><path
         d="m 16300,10774.1 c -21.2,46.2 -44.1,98.3 -67.4,155.1 7.4,9.9 14.9,19.9 22.7,30.1 16.8,-71.1 32.2,-134.5 44.7,-185.2"
         style="fill:#7aaadc;fill-opacity:1;fill-rule:nonzero;stroke:none"
         id="path64" /></g><g
       id="g66"
       transform="scale(0.199041)"><path
         d="m 16107.6,9636.45 c -6.4,433.65 -34.3,762.75 -46,883.65 17.7,14.8 36.2,29.9 55.2,45.1 130.5,-311.5 172.9,-616.6 183.2,-841.18 -74.5,-36.07 -140.6,-65.46 -192.4,-87.57"
         style="fill:#2171c5;fill-opacity:1;fill-rule:nonzero;stroke:none"
         id="path68" /></g><g
       id="g70"
       transform="scale(0.212005)"><path
         d="m 15697.2,9350.02 c 218,181.46 424.4,387.16 467.9,544.47 68.3,246.51 76,421.41 -188.7,421.41 -8,0 -16.2,-0.1 -24.7,-0.5 -177.4,-6.5 -539.7,-212.1 -747.1,-338.89 278.3,212.39 651.6,439.39 873.9,439.39 33.3,0 63.3,-5.1 89,-16.1 70.4,-30.2 109.5,-114.6 116.4,-250.7 16.1,-319.8 -277.5,-597.2 -586.7,-799.08"
         style="fill:#85cef7;fill-opacity:1;fill-rule:nonzero;stroke:none"
         id="path72" /></g><g
       id="g74"
       transform="scale(0.214453)"><path
         d="m 14867.8,8741.11 c -33.3,0 -64.6,20.56 -76.7,53.67 -15.4,42.29 6.4,89.15 48.7,104.64 12.9,4.71 1291.2,479.59 1258.2,1133.78 -6.8,134.6 -45.5,218 -115,247.9 -229.9,98.6 -801.5,-281.63 -1108.1,-544.44 l -84.5,-72.46 -43.7,102.45 c -184.7,433.55 -536.8,1044.35 -740.9,1044.95 h -0.2 c -62.4,0 -110.6,-80.7 -139.9,-148.5 -262.3,-605.3 276.5,-1560.19 281.9,-1569.79 22.4,-39.13 8.8,-88.97 -30.3,-111.31 -39,-22.43 -88.9,-8.86 -111.3,30.26 -24,41.97 -584.9,1035.24 -290.1,1715.64 71,163.8 168.4,246.9 289.6,246.9 h 0.9 c 337.6,-1 707,-736.9 846.6,-1044.58 234.3,187.98 856.7,645.78 1194.3,500.78 131.6,-56.5 203.5,-187.6 213.7,-389.6 39,-773.88 -1307.9,-1274.37 -1365.3,-1295.3 -9.2,-3.41 -18.6,-4.99 -27.9,-4.99"
         style="fill:#000072;fill-opacity:1;fill-rule:nonzero;stroke:none"
         id="path76" /></g><g
       id="g78"
       transform="scale(0.197082)"><path
         d="M 16007.4,7724.31 C 15918.2,7310.32 15786,6916.98 15592.5,6595.59 14588.9,4927.86 11802.2,4292.94 8481.87,4744.84 4366.39,5304.86 3660.16,8519.41 3660.16,8519.41 c 0,0 0.53,4.42 1.59,13.1 24.42,184.24 340.55,2273.39 2238.7,3322.99 2070.05,1144.5 4350.35,403.1 6100.25,-1948.03 1056.5,-1419.77 2435.1,-2130.74 3068.3,-596.71 633.1,1534.24 1059.3,1351.64 1059.3,1351.64 0,0 171.7,-1580.48 -120.9,-2938.09"
         style="fill:#33aef2;fill-opacity:1;fill-rule:nonzero;stroke:none"
         id="path80" /></g><g
       id="g82"
       transform="scale(0.193249)"><path
         d="m 14334.7,8324.7 c -671.9,0 -1445.4,597.41 -2096,1471.78 -1230.6,1653.32 -2718.09,2525.92 -4215.32,2525.92 -277.52,0 -555.66,-30 -832.3,-90.6 -95.57,-189.3 -392.96,-403.1 -779.05,-539.3 -231.61,-81.7 -455.83,-121.6 -639.95,-121.6 -30.11,0 -59.14,1.1 -86.98,3.2 -823.93,-583.3 -1361.21,-1465.9 -1659.64,-2079.98 47.3,138.16 104.97,287.81 175.04,443.93 284.51,633.75 838.29,1507.95 1860.85,2073.35 639.48,353.6 1300.19,526.8 1960.16,526.8 1466.61,0 2929.29,-855.6 4144.49,-2488.4 718.4,-965.26 1511.5,-1523.45 2152.1,-1523.45 44,0 87.2,2.64 129.7,7.92 434.6,54.28 772.3,366.06 1003.7,926.63 388.9,942.3 691.9,1217.8 848.5,1297.1 -154.9,-246.1 -432.4,-726.3 -837.8,-1571.72 -289.8,-604.56 -686.8,-861.58 -1127.5,-861.58"
         style="fill:#85cef7;fill-opacity:1;fill-rule:nonzero;stroke:none"
         id="path84" /></g><g
       id="g86"
       transform="scale(0.193544)"><path
         d="m 16300,7865.49 c -90.8,-421.56 -225.5,-822.08 -422.5,-1149.35 C 14855.6,5017.92 12017.9,4371.41 8636.89,4831.56 4446.2,5401.82 3727.05,8675.13 3727.05,8675.13 c 0,0 0.54,4.49 1.63,13.33 152.76,81.99 417.43,-183.79 891.19,-449.51 494.28,-277.3 1216.16,-554.55 2276.02,-436.85 644.92,71.61 1972.37,625.02 1972.37,625.02 0,0 5892.74,-3601.35 7431.74,-561.63"
         style="fill:#ffffff;fill-opacity:1;fill-rule:nonzero;stroke:none"
         id="path88" /></g><g
       id="g90"
       transform="scale(0.187705)"><path
         d="m 11005.5,4926.72 c -663.9,0 -1364.04,49.07 -2087.46,147.52 -2196.59,298.93 -3434.01,1339.76 -4085.3,2160.25 -654.65,824.76 -865.98,1599.06 -895.09,1715.52 0.75,5.43 1.72,12.25 2.93,20.45 33.7,-8.09 64.24,-28.34 86.38,-56.04 110.81,-137.72 224.04,-280.76 343.72,-426.79 181.9,-246.18 484.38,-624.44 898.59,-1037.74 649.81,-648.42 1706.2,-1503.43 3048.68,-1894.68 995.02,-289.98 2035.05,-436.06 3100.55,-436.06 230.1,0 461.6,6.82 693.9,20.51 790.3,46.46 1587.3,174.48 2348.2,375.38 -286.5,-119.44 -598,-221.73 -932.6,-305.8 -748.8,-188.01 -1600.8,-282.52 -2522.5,-282.52 m 425.4,366.64 c -1049.1,0 -2089.59,141.18 -3065.27,425.51 -799.02,232.86 -1495.17,635.57 -2060.68,1058.15 605.15,-354.55 1363.52,-672.65 2347.99,-916.54 852.99,-211.24 1620.46,-332.6 2310.76,-383 10.2,-0.74 20.2,-1.12 30.1,-1.12 177.4,0 314.4,116.3 364.1,264.03 253.7,-27.33 512.9,-45.12 775.5,-53.11 208.8,-74.96 451.9,-123.07 734.7,-134.73 2.8,-0.11 5.7,-0.16 8.5,-0.16 67.9,0 125.5,32.49 162,80.81 v 0 c 0.1,0.22 0.3,0.43 0.4,0.64 v 0 c 0.2,0.22 0.3,0.38 0.5,0.59 v 0 c 0.1,0.21 0.3,0.42 0.4,0.64 0,0 0,0 0,0.05 0.2,0.16 0.4,0.38 0.5,0.59 0,0 0,0.05 0.1,0.05 0.1,0.21 0.2,0.37 0.3,0.53 0.1,0.06 0.1,0.06 0.1,0.11 0.2,0.16 0.3,0.37 0.4,0.53 0,0.06 0.1,0.11 0.1,0.11 0.1,0.21 0.2,0.37 0.3,0.53 0.1,0.06 0.2,0.11 0.2,0.16 0.1,0.16 0.2,0.32 0.3,0.48 0,0.05 0.1,0.11 0.1,0.22 0.1,0.1 0.2,0.26 0.4,0.42 0,0.05 0.1,0.16 0.1,0.21 0.1,0.11 0.2,0.27 0.3,0.38 0,0.1 0.1,0.21 0.2,0.32 0,0.1 0.2,0.21 0.2,0.32 0.1,0.1 0.2,0.26 0.3,0.37 0,0.11 0.1,0.16 0.2,0.27 0,0.16 0.1,0.26 0.3,0.37 0,0.11 0.1,0.21 0.1,0.27 0.1,0.15 0.2,0.31 0.3,0.42 0,0.11 0.1,0.16 0.1,0.21 0.1,0.16 0.3,0.32 0.4,0.48 0,0.06 0,0.11 0.1,0.16 0.1,0.22 0.2,0.38 0.3,0.54 0,0.05 0.1,0.1 0.1,0.1 0.1,0.22 0.3,0.43 0.4,0.59 0,0.05 0,0.05 0,0.05 1.8,2.72 3.5,5.44 5.2,8.21 3.1,-6.66 6.2,-13.16 9.2,-19.66 11.1,-23.44 17.3,-47.52 19.2,-71.39 350.5,60.15 670.3,142.35 962.1,240.91 606.9,93.6 1159.9,238.67 1605.4,421.62 -115.7,-98.77 -240.5,-192.38 -374.2,-280.76 -1222.7,-431.69 -2539.1,-649.48 -3842.1,-649.48 m 316.2,585.18 c -124.3,8.68 -248.3,19.6 -372.1,32.92 -7.9,60.79 -31,121.57 -72,177.72 -163.8,224.13 -266.7,472.88 -330.8,708.08 25.5,-8.25 51.4,-16.46 77.6,-24.5 120.9,-314.32 320.9,-629.98 649.8,-861.94 0.4,-0.21 0.7,-0.43 1,-0.64 0.2,-0.11 0.3,-0.21 0.4,-0.32 15.1,-10.6 30.5,-21.04 46.1,-31.32 m 3061.6,248.26 c 271.9,141.18 510.8,296.1 720.2,456.41 287.7,87.1 532.9,200.36 730.8,338.19 -71.6,-113.27 -152,-222.32 -240.9,-327.06 -318.1,-187.58 -733.2,-345.97 -1210.1,-467.54 m 1108.7,789.11 c 73.8,70.64 142.6,141.23 206.6,211.02 34.4,37.45 75.4,53.33 115.2,53.33 20.9,0 41.6,-4.42 60.8,-12.31 -108.6,-96.32 -237.2,-179.91 -382.6,-252.04 m -4934.7,57.06 c -18.9,6.28 -37.4,12.57 -56,18.91 -60.5,308.94 -59.6,572.12 -54.7,690.98 6.7,-183.75 32.6,-439.31 110.7,-709.89"
         style="fill:#b2b2d4;fill-opacity:1;fill-rule:nonzero;stroke:none"
         id="path92" /></g><g
       id="g94"
       transform="scale(0.178197)"><path
         d="m 12027.7,5392.29 c -1122.4,0 -2217.82,153.88 -3265.93,459.33 -1414.11,412.12 -2526.87,1312.76 -3211.35,1995.77 -740.71,739.12 -1142.2,1371.62 -1158.94,1398.22 -26.41,41.92 -13.81,97.37 28.11,123.8 41.99,26.49 97.37,13.86 123.83,-28.11 4.03,-6.35 409.68,-644.91 1137.2,-1370.18 669.04,-666.9 1755.42,-1546.09 3131.37,-1947.11 2330.91,-679.3 5012.11,-582.89 7356.21,264.59 46.6,16.9 98.1,-7.29 115,-53.93 16.8,-46.63 -7.3,-98.09 -54,-114.98 -1084.4,-392.04 -2284.5,-636.09 -3470.6,-705.79 -244.6,-14.43 -488.5,-21.61 -730.9,-21.61"
         style="fill:#000072;fill-opacity:1;fill-rule:nonzero;stroke:none"
         id="path96" /></g><g
       id="g98"
       transform="scale(0.186487)"><path
         d="m 12534.8,5719.59 c -1130.3,0 -2210.2,178.78 -3096.72,517.57 -1982.61,757.8 -2792.9,1736.04 -2826.42,1777.33 -29.87,36.79 -24.29,90.84 12.5,120.71 36.84,29.87 90.84,24.29 120.7,-12.49 10.89,-13.3 822.53,-986.83 2754.51,-1725.22 2192.13,-837.91 5323.13,-553.6 6658.03,260.34 40.5,24.72 93.2,11.85 117.9,-28.58 24.7,-40.48 11.9,-93.25 -28.6,-117.92 -663.7,-404.74 -1797.1,-692.7 -3031.8,-770.34 -227.9,-14.32 -455,-21.4 -680.1,-21.4"
         style="fill:#000072;fill-opacity:1;fill-rule:nonzero;stroke:none"
         id="path100" /></g><g
       id="g102"
       transform="scale(0.192176)"><path
         d="m 13525.3,6223.88 c -1110.8,0 -2386.8,220.78 -3176,549.75 -1915.52,798.28 -2181.32,1387.74 -2191.68,1412.46 -17.85,42.35 2.08,91.16 44.49,108.96 42.05,17.64 90.39,-1.77 108.55,-43.45 5,-10.51 281.41,-565.26 2102.74,-1324.31 1494.4,-622.86 4938.2,-914.99 5721.3,322.42 24.6,38.82 76.1,50.42 114.9,25.81 38.8,-24.62 50.4,-76.03 25.8,-114.9 -382,-603.56 -1357.5,-936.22 -2747,-936.74 -1,0 -2.1,0 -3.1,0"
         style="fill:#000072;fill-opacity:1;fill-rule:nonzero;stroke:none"
         id="path104" /></g><g
       id="g106"
       transform="scale(0.106415)"><path
         d="m 12541.8,14039.7 c -75.6,0 -140.7,57 -149.2,133.8 -9.2,82.5 50.3,156.9 132.9,166.1 1138.2,126.4 3521.9,1116.1 3545.9,1126.1 76.5,31.9 164.6,-4.3 196.6,-81 32,-76.6 -4.3,-164.6 -81,-196.6 -99.3,-41.4 -2447.6,-1016.3 -3628.4,-1147.5 -5.6,-0.5 -11.3,-0.9 -16.8,-0.9"
         style="fill:#000072;fill-opacity:1;fill-rule:nonzero;stroke:none"
         id="path108" /></g><g
       id="g110"
       transform="scale(0.104955)"><path
         d="m 11806.6,14183.4 c -2073.11,-0.1 -3332.47,828.6 -4124.43,1349.8 -322.26,212 -626.43,412.5 -734.17,354.5 -74.25,-39.8 -166.55,-11.9 -206.38,62.2 -39.82,74.3 -11.96,166.7 62.25,206.5 267.41,143.6 577.21,-60.2 1045.88,-368.5 869.27,-572 2324.35,-1529.4 4849.95,-1248.8 83.6,9.3 159,-51 168.4,-134.8 9.2,-83.6 -51.1,-159 -134.8,-168.3 -325.6,-36.1 -634.4,-52.6 -926.7,-52.6"
         style="fill:#000072;fill-opacity:1;fill-rule:nonzero;stroke:none"
         id="path112" /></g><g
       id="g114"
       transform="scale(0.199529)"><path
         d="m 3704.31,8419.64 c 27.38,-109.56 226.19,-837.98 842.04,-1613.86 612.7,-771.87 1776.8,-1751.02 3843.21,-2032.23 1625.34,-221.22 3125.04,-177.27 4336.74,126.99 1234.1,309.93 2133.1,883.74 2599.9,1659.36 715.6,1189.26 563,3437.5 524.4,3884.1 -120,-30.6 -446.2,-216.7 -885.4,-1280.86 -224.1,-542.93 -551.1,-844.89 -972.1,-897.47 -640.2,-80.04 -1466.5,468.81 -2210,1467.86 C 10076.5,12026.6 7866.18,12736.9 5870.58,11633.4 4880.2,11085.8 4343.85,10239.1 4068.3,9625.27 3795.51,9017.59 3716.86,8511.15 3704.31,8419.64 M 10352.8,4459.46 c -632.55,0 -1298.72,46.61 -1986.84,140.28 -938.81,127.75 -1777.19,406.1 -2491.77,827.25 -573,337.69 -1067.82,767.25 -1470.82,1276.8 -687.14,868.75 -866.47,1659.01 -873.79,1692.24 l -3.11,14.23 1.64,14.49 c 2.62,23.1 67.69,574 377.6,1266.63 286.42,640.12 845.06,1523.22 1880.02,2095.52 2079.6,1149.8 4374.17,421.4 6138.07,-1948.62 705.3,-947.74 1470.6,-1470.47 2047.6,-1398.55 353.6,44.16 633.5,310.03 831.7,790.31 402.6,975.56 734.5,1281.26 941.9,1365.86 125.8,51.2 205.3,22.5 220,16.3 l 47.1,-20.2 5.5,-51 c 12,-109.7 282.4,-2702.98 -541.1,-4071.56 -491.2,-816.22 -1427.4,-1417.54 -2707.4,-1739 -718.1,-180.32 -1534.5,-270.98 -2416.3,-270.98"
         style="fill:#000072;fill-opacity:1;fill-rule:nonzero;stroke:none"
         id="path116" /></g><g
       id="g118"
       transform="scale(0.151158)"><path
         d="m 13505.6,9888.95 c 0,0 -273.6,-2880.57 2473.9,-2993.77 190.6,-7.87 320.5,191.26 238.9,363.73 -109,230.42 -240.5,547.51 -321,878.49 -130.8,538.38 -227.5,878.42 -359.8,1174.73 l -2032,576.82"
         style="fill:#33aef2;fill-opacity:1;fill-rule:nonzero;stroke:none"
         id="path120" /></g><g
       id="g122"
       transform="scale(0.150147)"><path
         d="m 16097.6,6941.25 c -3.5,0 -7.1,0.07 -10.7,0.2 -353.5,14.59 -657.4,74.73 -918.5,168.44 0.1,0 0.2,0 0.2,0 261.1,-93.71 564.9,-153.72 918.4,-168.3 3.7,-0.14 7.3,-0.27 11,-0.27 84.6,0 156.4,40.63 202,100.97 -45.6,-60.41 -117.6,-101.04 -202.4,-101.04 m -1412.1,407.74 v 0 c -19.5,12.85 -38.7,25.91 -57.6,39.16 18.9,-13.25 38.2,-26.38 57.6,-39.16"
         style="fill:#d1d1e5;fill-opacity:1;fill-rule:nonzero;stroke:none"
         id="path124" /></g><g
       id="g126"
       transform="scale(0.139726)"><path
         d="m 16300,7640.18 c -0.1,0 -0.1,0 -0.2,0 -194.2,69.78 -366.3,156.81 -519,256.93 v 0 c 152.8,-100.12 325,-187.15 519.2,-256.93"
         style="fill:#6666aa;fill-opacity:1;fill-rule:nonzero;stroke:none"
         id="path128" /></g><g
       id="g130"
       transform="scale(0.150234)"><path
         d="m 16290.5,7038.2 c 0.2,0.27 0.4,0.54 0.6,0.8 -0.2,-0.26 -0.4,-0.53 -0.6,-0.8 m 0.6,0.8 c 0.2,0.27 0.4,0.47 0.6,0.73 -0.2,-0.26 -0.4,-0.46 -0.6,-0.73 m 0.6,0.73 c 0.2,0.27 0.4,0.54 0.6,0.8 -0.2,-0.26 -0.4,-0.53 -0.6,-0.8 m 0.6,0.87 c 0.2,0.2 0.4,0.47 0.6,0.73 -0.2,-0.26 -0.4,-0.53 -0.6,-0.73 m 0.6,0.8 c 0.2,0.2 0.4,0.46 0.5,0.66 -0.1,-0.2 -0.3,-0.4 -0.5,-0.66 m 0.6,0.8 c 0.2,0.2 0.3,0.46 0.5,0.66 -0.2,-0.2 -0.3,-0.46 -0.5,-0.66 m 0.6,0.8 c 0.1,0.26 0.3,0.46 0.4,0.66 -0.1,-0.2 -0.3,-0.4 -0.4,-0.66 m 0.6,0.86 c 0.1,0.2 0.2,0.4 0.4,0.6 -0.2,-0.2 -0.3,-0.4 -0.4,-0.6 m 0.6,0.87 c 0.1,0.13 0.2,0.33 0.4,0.53 -0.2,-0.2 -0.3,-0.4 -0.4,-0.53 m 0.6,0.8 c 0.1,0.13 0.2,0.33 0.3,0.46 -0.1,-0.13 -0.2,-0.33 -0.3,-0.46 m 0.6,0.86 c 0,0.13 0.2,0.27 0.2,0.4 0,-0.13 -0.2,-0.27 -0.2,-0.4 m 0.6,0.87 c 0,0.13 0.1,0.19 0.2,0.33 -0.1,-0.14 -0.2,-0.2 -0.2,-0.33 m 0.6,0.8 c 0,0.13 0.1,0.26 0.2,0.33 -0.1,-0.07 -0.2,-0.2 -0.2,-0.33 m 0.5,0.86 c 0.1,0.13 0.1,0.2 0.2,0.27 -0.1,-0.07 -0.1,-0.14 -0.2,-0.27 m 0.6,0.87 c 0.1,0.06 0.1,0.13 0.1,0.19 0,-0.06 0,-0.13 -0.1,-0.19 m 0.6,0.86 c 0,0.07 0.1,0.13 0.1,0.13 0,0 -0.1,-0.06 -0.1,-0.13 m 0.5,0.87 c 0.1,0.06 0.1,0.06 0.1,0.06 0,0 0,0 -0.1,-0.06 m -1681,332.74 c -0.3,0.27 -0.8,0.53 -1.2,0.8 0.4,-0.27 0.9,-0.53 1.2,-0.8"
         style="fill:#d1d1e5;fill-opacity:1;fill-rule:nonzero;stroke:none"
         id="path132" /></g><g
       id="g134"
       transform="scale(0.150781)"><path
         d="m 16030.3,6912.14 c -3.6,0 -7.3,0.14 -10.9,0.27 -352,14.52 -654.5,74.28 -914.5,167.59 -180,64.67 -339.6,145.31 -481.1,238.1 -19.4,12.73 -38.6,25.8 -57.4,39 -0.2,0.13 -0.3,0.26 -0.5,0.39 -0.3,0.27 -0.8,0.53 -1.2,0.8 -675.4,476.39 -914.2,1236.76 -994.6,1804.4 227.7,-804.07 823.5,-1721.43 2352.1,-1784.57 3.6,-0.13 7.3,-0.2 10.8,-0.2 98.4,0 179.6,55.25 221.8,132.31 35.3,-84.36 70.9,-162.88 104,-233.18 41.2,-86.82 28.8,-180.4 -17.9,-251.03 0,0 0,0 -0.1,-0.07 -0.1,-0.2 -0.2,-0.46 -0.4,-0.73 0,0 -0.1,-0.06 -0.1,-0.13 -0.1,-0.2 -0.3,-0.46 -0.5,-0.66 0,-0.07 0,-0.14 -0.1,-0.2 -0.1,-0.2 -0.3,-0.4 -0.4,-0.6 0,-0.07 -0.1,-0.13 -0.2,-0.26 0,-0.14 -0.2,-0.34 -0.3,-0.53 -0.1,-0.07 -0.1,-0.2 -0.2,-0.34 -0.1,-0.13 -0.3,-0.26 -0.3,-0.46 -0.2,-0.13 -0.2,-0.2 -0.3,-0.33 -0.1,-0.14 -0.2,-0.34 -0.3,-0.47 -0.1,-0.13 -0.2,-0.26 -0.3,-0.39 -0.1,-0.14 -0.2,-0.27 -0.3,-0.4 -0.1,-0.13 -0.2,-0.33 -0.3,-0.47 -0.1,-0.13 -0.1,-0.2 -0.2,-0.26 -0.1,-0.2 -0.3,-0.4 -0.4,-0.53 -0.1,-0.13 -0.1,-0.2 -0.2,-0.27 -0.1,-0.2 -0.3,-0.39 -0.4,-0.59 0,-0.07 -0.1,-0.14 -0.1,-0.2 -0.2,-0.2 -0.4,-0.4 -0.5,-0.67 0,0 -0.1,-0.06 -0.1,-0.13 -0.2,-0.2 -0.3,-0.46 -0.5,-0.66 0,0 -0.1,-0.07 -0.1,-0.13 -0.1,-0.2 -0.3,-0.47 -0.4,-0.67 -0.1,0 -0.1,-0.07 -0.1,-0.07 -0.2,-0.26 -0.4,-0.53 -0.6,-0.72 0,-0.07 0,-0.07 0,-0.07 -0.2,-0.27 -0.4,-0.53 -0.6,-0.8 v 0 c -0.2,-0.26 -0.3,-0.46 -0.5,-0.73 v 0 c -0.2,-0.26 -0.4,-0.53 -0.6,-0.79 v 0 c -45.4,-60.09 -116.9,-100.55 -201.2,-100.55"
         style="fill:#85cef7;fill-opacity:1;fill-rule:nonzero;stroke:none"
         id="path136" /></g><g
       id="g138"
       transform="scale(0.151762)"><path
         d="m 13486.8,9846.21 c 43.5,-146.28 60.1,-288.68 74,-431.2 16.2,-142.2 29.1,-284.39 50.4,-425.67 21.3,-141.27 55.9,-280.04 98.3,-415.72 44.2,-135.08 97,-266.86 159.4,-393.57 128.5,-250.79 296.6,-481.41 510.3,-662.16 103.9,-93.83 222.7,-168.95 343.1,-240.24 l 94.2,-46.78 c 31.8,-14.96 61.9,-32.95 95.3,-44.62 l 98.1,-38.94 49.1,-19.5 50.6,-15.49 c 67.9,-19.57 134.1,-44.21 204.1,-57.06 69.5,-14.5 137.8,-33.6 208.8,-41.38 l 105.7,-15.35 52.9,-7.65 53.4,-3.95 106.9,-7.98 53.5,-4.01 26.2,-1.85 c 5.4,0.4 10.8,0.53 16.3,0.53 42.4,3.42 82.4,24.51 107.3,61.08 25.1,35.71 35.2,81.45 23.3,122.63 -0.9,5.27 -2.4,10.47 -4.9,15.42 l -2.9,7.7 c -0.9,2.38 -1.8,5.01 -4.2,9.89 l -23.7,50.93 -46,102.6 c -30,68.73 -58.7,138.11 -85.9,208.09 -54.5,140.09 -102.9,282.94 -143,429.09 -10.1,36.24 -19.3,73.74 -28.3,109.78 l -26.3,106.81 -53.9,212.77 c -18.4,70.7 -37.2,141.08 -57.1,211.05 -19.6,70.05 -45,138.12 -68.7,206.25 -23.5,68.26 -44.4,136.72 -60.3,207.16 -15.2,70.9 -25.7,143.39 -19.1,225.88 v 0.46 c 1.7,21.88 20.8,38.22 42.7,36.51 8.1,-0.66 15.5,-3.62 21.4,-8.3 66.4,-51.99 111.1,-116.11 147,-183.25 35.2,-67.54 62,-138.38 82.7,-210.46 l 115.4,-432.19 54.6,-215.21 26.5,-107.6 c 8.8,-35.32 17.2,-69.39 26.9,-103.98 37.6,-137.85 83.8,-274.11 136,-408.4 26.1,-67.15 53.7,-133.89 82.6,-200.05 l 44.3,-98.84 22.9,-49.09 c 1.7,-3.43 4.1,-9.29 6.7,-15.55 l 7.1,-17.99 c 5.1,-11.86 8.9,-24.25 11.7,-37.03 27.8,-101.41 4.3,-213.5 -55.6,-297.24 -58.5,-85.53 -159.9,-142.27 -264.2,-149.25 l -38.9,-0.92 -28.8,1.98 -56.6,4.21 -113.3,8.44 -56.7,4.28 -56.4,8.04 -112.8,16.4 c -75.5,8.5 -149.5,28.67 -224.1,44.42 -75,14.03 -147.4,40.32 -220.8,61.8 l -54.9,16.87 -53.5,21.22 -107.1,42.57 c -36.3,12.85 -69.8,32.35 -104.6,48.82 l -103.4,51.6 c -132.9,78.15 -263.8,161.7 -379.1,265.21 -236.4,200.32 -421.7,454.73 -560.9,727.13 -67.8,137.45 -124.6,279.45 -171.9,424.22 -45.7,145.22 -80.5,293.02 -111.8,441.35 -31,148.39 -52.9,299.08 -54.5,450.7 -2.9,151.29 9.2,303.96 74.5,451.24 8.3,18.71 30.2,27.14 48.9,18.84 10.2,-4.55 17.4,-13.18 20.4,-23.13 l 0.7,-2.37"
         style="fill:#000072;fill-opacity:1;fill-rule:nonzero;stroke:none"
         id="path140" /></g><g
       id="g142"
       transform="scale(0.122699)"><path
         d="m 14708.7,15160.1 c -66.3,220.7 -159.4,435.7 -295.1,584.8 -134.9,150.2 -310.1,223.4 -516,229.3 -102.9,4.5 -201.7,-8.4 -288.8,-40 -86.8,-32.4 -163.2,-85.4 -225.9,-161.4 -127.1,-151 -195.6,-380.9 -227,-606.7 l -0.6,-4 c -4.2,-30 -31.9,-50.9 -61.9,-46.8 -23.2,3.3 -40.9,20.7 -45.8,42.3 -14.8,65.4 -21.2,127 -23.8,191.5 -3.5,64.3 0.9,128.7 8.2,193.9 15.8,129.8 54.8,263.1 130.6,384.7 37.4,60.9 84.6,117.7 139.6,167.6 55.8,48.8 119,89.7 186,121.4 67.4,30.5 137.4,51.7 207.7,65 70.3,11.5 139.8,18.3 209,16.5 137.7,-2.3 283.1,-27.6 414.4,-94.3 132.6,-63 243.8,-166.6 323.6,-281.4 79.4,-116.2 129.5,-244.1 157.2,-372.1 26,-129.2 35.8,-255.8 17.2,-386.8 -4.3,-30 -32.2,-51 -62.2,-46.7 -21.9,3.1 -39.1,18.7 -45,38.6 l -1.4,4.6"
         style="fill:#000072;fill-opacity:1;fill-rule:nonzero;stroke:none"
         id="path144" /></g><g
       id="g146"
       transform="scale(0.113497)"><path
         d="m 14952.9,15157.6 c 0,0 -212.6,-1497.1 1347.1,-1359.8"
         style="fill:#28b9e5;fill-opacity:1;fill-rule:nonzero;stroke:none"
         id="path148" /></g><g
       id="g150"
       transform="scale(0.11351)"><path
         d="m 16102.9,13765.3 c -379.9,0 -674.4,107.7 -876.9,321.4 -386,407 -297.7,1065.6 -296.7,1072.2 l 43.6,-6.3 c -0.9,-6.3 -86.2,-644.3 285.2,-1035.8 226.6,-238.9 576,-339.3 1038,-298.7 l 3.9,-43.9 c -68,-5.9 -133.7,-8.9 -197.1,-8.9"
         style="fill:#000072;fill-opacity:1;fill-rule:nonzero;stroke:none"
         id="path152" /></g><g
       id="g154"
       transform="scale(0.113616)"><path
         d="m 14960.5,15138.4 c 75.8,-190.9 112.3,-359.9 160,-522.2 23.2,-80.7 46.5,-160 79.7,-234.5 33.1,-74.3 77.7,-142.7 134.2,-198.7 55.3,-57.4 122.7,-100.9 194.3,-135.4 71.8,-34.3 147.8,-61.5 228.2,-82.2 79.2,-24.8 163.6,-37.4 249.6,-59.2 43.3,-10.3 87.5,-21.4 132.8,-38.8 45.7,-14.5 92.3,-32.5 141.6,-60.6 l 1.3,-0.8 c 13.2,-7.6 17.8,-24.4 10.2,-37.6 -1.9,-3.3 -4.5,-6.2 -7.4,-8.4 -180.4,-134.6 -394.4,-134 -600.5,-93.7 -51.9,9 -102.7,27.9 -153.4,44.7 -49.5,21.8 -99.8,41.9 -146,71.6 -94,54.8 -181.1,123.9 -255.1,204.1 -73.7,80.3 -137.9,168.3 -190.4,261.7 -52.7,93.4 -92.9,193 -114.7,295.2 -40.7,204.3 -27.6,417.6 89.1,601.4 7.6,11.9 23.4,15.5 35.4,7.9 4.8,-3 8.2,-7.3 10.1,-12.2 l 1,-2.3"
         style="fill:#000072;fill-opacity:1;fill-rule:nonzero;stroke:none"
         id="path156" /></g><g
       id="g158"
       transform="scale(0.192803)"><path
         d="m 6064.53,15615.2 c -107.06,0 -186.05,131.9 -105.29,230.3 125.41,152.7 286.97,300.6 476.34,367.3 171.47,60.5 343.35,87.2 504.04,87.2 77.74,0 152.79,-6.3 224.01,-17.9 150.2,-24.7 155.49,-239.8 7,-273.5 -182.1,-41.3 -396.78,-97.1 -596.73,-166.7 -91.59,-31.8 -269.54,-119.7 -443.66,-210 -22.3,-11.5 -44.55,-16.7 -65.71,-16.7"
         style="fill:#b6e2fa;fill-opacity:1;fill-rule:nonzero;stroke:none"
         id="path160" /></g><g
       id="g162"
       transform="scale(0.190048)"><path
         d="m 10139.1,15795.3 c -57.7,0 -92.7,70.2 -52.2,117.8 108.1,127 353.6,318.1 875.6,379.8 41.2,4.8 79.5,7.1 115.3,7.1 208.7,0 330.2,-77.1 417.4,-166.7 59.1,-60.7 13.1,-158.6 -64.5,-158.6 -6.9,0 -14,0.7 -21.4,2.4 -86.8,19.4 -191.3,34.4 -307,34.4 -72.5,0 -149.3,-5.9 -229.1,-20.3 -131.2,-23.6 -508.5,-151.5 -719.1,-194.4 -5.1,-1 -10.1,-1.5 -15,-1.5"
         style="fill:#b6e2fa;fill-opacity:1;fill-rule:nonzero;stroke:none"
         id="path164" /></g><g
       id="g166"
       transform="scale(0.20246)"><path
         d="m 8229.6,16038.9 c -21.39,0 -41.2,20.5 -32.75,45.4 32.65,96.3 87.23,200.1 172.97,214.3 5.73,0.9 11.31,1.4 16.65,1.4 85.69,0 118.15,-118.2 130.35,-216.9 2.81,-22.7 -15.12,-38.5 -34.14,-38.5 -8.84,0 -17.93,3.5 -25.28,11.2 -23.61,24.7 -53.3,45.5 -88.71,51 -3.61,0.5 -7.26,0.8 -10.92,0.8 -35.46,0 -71.82,-25.5 -103.77,-58.1 -7.26,-7.4 -15.96,-10.6 -24.4,-10.6"
         style="fill:#b6e2fa;fill-opacity:1;fill-rule:nonzero;stroke:none"
         id="path168" /></g><g
       id="g170"
       transform="scale(0.182685)"><path
         d="m 9700.56,15859.9 c -175.93,0 -244.08,119.1 -264.93,221.9 -11.44,56.6 -4.71,116 8.98,169.5 8.21,32 35.36,48.7 62.95,48.7 23.09,0 46.41,-11.7 59.17,-36.1 31.36,-60.2 83.91,-113.7 171.82,-115.1 1.86,-0.1 3.72,-0.1 5.59,-0.1 89.93,0 175.49,35.4 242.6,74.4 10.62,6.2 21.76,9 32.36,9 42,0 78.4,-42.5 61.7,-87.8 -40.1,-109.1 -116.23,-233.7 -258.55,-268.4 -45.38,-11 -85.78,-16 -121.69,-16"
         style="fill:#b6e2fa;fill-opacity:1;fill-rule:nonzero;stroke:none"
         id="path172" /></g></g></svg>
